<svg width="48" height="48" viewBox="0 0 48 48" fill="none" xmlns="http://www.w3.org/2000/svg">
<path fill-rule="evenodd" clip-rule="evenodd" d="M16 4H31.16C37.7874 4 43.16 9.37258 43.16 16V31.16C43.16 37.7874 37.7874 43.16 31.16 43.16H16C9.37258 43.16 4 37.7874 4 31.16V16C4 9.37258 9.37258 4 16 4ZM31.16 40.16C36.126 40.149 40.149 36.126 40.16 31.16V16C40.149 11.034 36.126 7.011 31.16 7H16C11.034 7.011 7.011 11.034 7 16V31.16C7.011 36.126 11.034 40.149 16 40.16H31.16Z" fill="white"/>
<path d="M23.58 16.08C22.7561 16.0908 22.0908 16.7561 22.08 17.58C22.0799 18.4117 22.7484 19.0891 23.58 19.1C23.983 19.1056 24.3709 18.9466 24.654 18.6597C24.9371 18.3728 25.0909 17.9829 25.08 17.58C25.08 16.7516 24.4084 16.08 23.58 16.08Z" fill="white"/>
<path d="M23.58 21.84C22.7516 21.84 22.08 22.5116 22.08 23.34V29.58C22.08 30.4084 22.7516 31.08 23.58 31.08C24.4084 31.08 25.08 30.4084 25.08 29.58V23.38C25.0965 22.9737 24.9452 22.5785 24.6614 22.2872C24.3777 21.9959 23.9866 21.8342 23.58 21.84Z" fill="white"/>
</svg>
