<svg width="40" height="40" viewBox="0 0 40 40" fill="none" xmlns="http://www.w3.org/2000/svg">
<g opacity="0.75" clip-path="url(#clip0_30_279)">
<path d="M19.9998 16.3638V24.1092H30.7634C30.2907 26.6001 28.8724 28.7093 26.7451 30.1275L33.236 35.1639C37.0178 31.6731 39.1996 26.5458 39.1996 20.4549C39.1996 19.0367 39.0724 17.673 38.836 16.364L19.9998 16.3638Z" fill="white"/>
<path d="M8.79111 23.8066L7.32717 24.9273L2.14526 28.9636C5.43616 35.4908 12.1811 39.9999 19.9992 39.9999C25.3991 39.9999 29.9263 38.2181 33.2355 35.1636L26.7446 30.1272C24.9628 31.3272 22.69 32.0546 19.9992 32.0546C14.7993 32.0546 10.3812 28.5455 8.79928 23.8182L8.79111 23.8066Z" fill="white"/>
<path d="M2.1453 11.0361C0.781737 13.7269 0 16.7633 0 19.9996C0 23.236 0.781737 26.2724 2.1453 28.9632C2.1453 28.9812 8.79996 23.7995 8.79996 23.7995C8.39996 22.5995 8.16353 21.3269 8.16353 19.9994C8.16353 18.672 8.39996 17.3993 8.79996 16.1994L2.1453 11.0361Z" fill="white"/>
<path d="M19.9996 7.96363C22.9451 7.96363 25.5633 8.98179 27.6542 10.9454L33.3814 5.21825C29.9087 1.98194 25.3997 0 19.9996 0C12.1815 0 5.43616 4.4909 2.14526 11.0364L8.79972 16.2C10.3814 11.4727 14.7997 7.96363 19.9996 7.96363Z" fill="white"/>
</g>
<defs>
<clipPath id="clip0_30_279">
<rect width="40" height="40" fill="white"/>
</clipPath>
</defs>
</svg>
