<svg width="48" height="48" viewBox="0 0 48 48" fill="none" xmlns="http://www.w3.org/2000/svg">
<path fill-rule="evenodd" clip-rule="evenodd" d="M40.58 14.001L29.46 5.78096C26.2073 3.40635 21.7927 3.40635 18.54 5.78096L7.44 14.001C5.29088 15.5492 4.01221 18.0322 4 20.681V35.541C4.12005 40.3275 8.0933 44.1128 12.88 44.001H35.12C39.9067 44.1128 43.88 40.3275 44 35.541V20.661C43.9829 18.0237 42.7134 15.5515 40.58 14.001ZM41 35.541C40.8807 38.6709 38.2502 41.1135 35.12 41.001H12.88C9.75395 41.1024 7.13005 38.6659 7 35.541V20.681C7.01067 18.9808 7.83634 17.389 9.22 16.401L20.32 8.20096C22.5122 6.60012 25.4878 6.60012 27.68 8.20096L38.78 16.421C40.1625 17.3918 40.9897 18.9717 41 20.661V35.541ZM15 31.501H33C33.8284 31.501 34.5 32.1725 34.5 33.001C34.5 33.8294 33.8284 34.501 33 34.501H15C14.1716 34.501 13.5 33.8294 13.5 33.001C13.5 32.1725 14.1716 31.501 15 31.501Z" fill="white"/>
</svg>
