<svg width="30" height="30" viewBox="0 0 30 30" fill="none" xmlns="http://www.w3.org/2000/svg">
<circle cx="15" cy="15" r="15" fill="#FF8629"/>
<path fill-rule="evenodd" clip-rule="evenodd" d="M11.408 7.045C12.2077 7.00818 12.4627 7 14.5 7C16.5373 7 16.7923 7.00886 17.5914 7.045C18.3905 7.08114 18.9359 7.20864 19.4132 7.39341C19.913 7.58227 20.3664 7.8775 20.7414 8.25932C21.1232 8.63364 21.4177 9.08636 21.6059 9.58682C21.7914 10.0641 21.9182 10.6095 21.955 11.4073C21.9918 12.2084 22 12.4634 22 14.5C22 16.5373 21.9911 16.7923 21.955 17.592C21.9189 18.3898 21.7914 18.9352 21.6059 19.4125C21.4177 19.913 21.1227 20.3665 20.7414 20.7414C20.3664 21.1232 19.913 21.4177 19.4132 21.6059C18.9359 21.7914 18.3905 21.9182 17.5927 21.955C16.7923 21.9918 16.5373 22 14.5 22C12.4627 22 12.2077 21.9911 11.408 21.955C10.6102 21.9189 10.0648 21.7914 9.5875 21.6059C9.08699 21.4177 8.63351 21.1227 8.25864 20.7414C7.87708 20.3668 7.58181 19.9136 7.39341 19.4132C7.20864 18.9359 7.08182 18.3905 7.045 17.5927C7.00818 16.7916 7 16.5366 7 14.5C7 12.4627 7.00886 12.2077 7.045 11.4086C7.08114 10.6095 7.20864 10.0641 7.39341 9.58682C7.58208 9.08642 7.87758 8.63317 8.25932 8.25864C8.63366 7.87716 9.08669 7.58189 9.58682 7.39341C10.0641 7.20864 10.6095 7.08182 11.4073 7.045H11.408ZM17.5307 8.395C16.7398 8.35886 16.5025 8.35136 14.5 8.35136C12.4975 8.35136 12.2602 8.35886 11.4693 8.395C10.7377 8.42841 10.3409 8.55045 10.0764 8.65341C9.72659 8.78977 9.47636 8.95136 9.21386 9.21386C8.96503 9.45594 8.77353 9.75065 8.65341 10.0764C8.55045 10.3409 8.42841 10.7377 8.395 11.4693C8.35886 12.2602 8.35136 12.4975 8.35136 14.5C8.35136 16.5025 8.35886 16.7398 8.395 17.5307C8.42841 18.2623 8.55045 18.6591 8.65341 18.9236C8.77341 19.2489 8.965 19.5441 9.21386 19.7861C9.45591 20.035 9.75114 20.2266 10.0764 20.3466C10.3409 20.4495 10.7377 20.5716 11.4693 20.605C12.2602 20.6411 12.4968 20.6486 14.5 20.6486C16.5032 20.6486 16.7398 20.6411 17.5307 20.605C18.2623 20.5716 18.6591 20.4495 18.9236 20.3466C19.2734 20.2102 19.5236 20.0486 19.7861 19.7861C20.035 19.5441 20.2266 19.2489 20.3466 18.9236C20.4495 18.6591 20.5716 18.2623 20.605 17.5307C20.6411 16.7398 20.6486 16.5025 20.6486 14.5C20.6486 12.4975 20.6411 12.2602 20.605 11.4693C20.5716 10.7377 20.4495 10.3409 20.3466 10.0764C20.2102 9.72659 20.0486 9.47636 19.7861 9.21386C19.544 8.96505 19.2493 8.77355 18.9236 8.65341C18.6591 8.55045 18.2623 8.42841 17.5307 8.395ZM13.542 16.812C14.077 17.0347 14.6728 17.0648 15.2275 16.8971C15.7821 16.7294 16.2614 16.3743 16.5834 15.8924C16.9053 15.4106 17.05 14.832 16.9928 14.2553C16.9355 13.6786 16.6798 13.1398 16.2693 12.7307C16.0077 12.4692 15.6913 12.269 15.343 12.1444C14.9946 12.0199 14.623 11.9741 14.2549 12.0104C13.8867 12.0467 13.5312 12.1642 13.214 12.3544C12.8967 12.5446 12.6255 12.8028 12.42 13.1104C12.2145 13.4179 12.0797 13.7672 12.0254 14.1332C11.971 14.4991 11.9985 14.8725 12.1058 15.2265C12.2131 15.5805 12.3976 15.9063 12.6459 16.1805C12.8943 16.4547 13.2003 16.6704 13.542 16.812ZM11.7741 11.7741C12.1321 11.4161 12.557 11.1322 13.0247 10.9384C13.4925 10.7447 13.9938 10.645 14.5 10.645C15.0062 10.645 15.5075 10.7447 15.9753 10.9384C16.443 11.1322 16.8679 11.4161 17.2259 11.7741C17.5839 12.1321 17.8678 12.557 18.0616 13.0247C18.2553 13.4925 18.355 13.9938 18.355 14.5C18.355 15.0062 18.2553 15.5075 18.0616 15.9753C17.8678 16.443 17.5839 16.8679 17.2259 17.2259C16.503 17.9489 15.5224 18.355 14.5 18.355C13.4776 18.355 12.497 17.9489 11.7741 17.2259C11.0511 16.503 10.645 15.5224 10.645 14.5C10.645 13.4776 11.0511 12.497 11.7741 11.7741ZM19.21 11.2191C19.2987 11.1354 19.3697 11.0348 19.4188 10.9232C19.468 10.8115 19.4942 10.6912 19.496 10.5693C19.4977 10.4473 19.475 10.3263 19.4292 10.2133C19.3833 10.1003 19.3153 9.99762 19.2291 9.91139C19.1428 9.82516 19.0402 9.75711 18.9272 9.71126C18.8142 9.66542 18.6931 9.64271 18.5712 9.64449C18.4492 9.64627 18.3289 9.67249 18.2173 9.72161C18.1057 9.77073 18.005 9.84175 17.9214 9.93045C17.7586 10.103 17.6695 10.3321 17.673 10.5693C17.6764 10.8064 17.7722 11.0329 17.9399 11.2006C18.1076 11.3683 18.334 11.464 18.5712 11.4675C18.8083 11.4709 19.0375 11.3818 19.21 11.2191Z" fill="white"/>
</svg>
