<svg width="34" height="34" viewBox="0 0 34 34" fill="none" xmlns="http://www.w3.org/2000/svg">
<path d="M16.9862 0.0371094C7.78443 0.0371094 0.325623 7.49733 0.325623 16.6977C0.325623 25.8995 7.78443 33.3583 16.9862 33.3583C26.1866 33.3583 33.6468 25.8981 33.6468 16.6977C33.6468 7.49733 26.1866 0.0371094 16.9862 0.0371094ZM12.9047 21.1716C12.9047 22.072 12.175 22.8002 11.276 22.8002C10.3756 22.8002 9.64737 22.072 9.64737 21.1716V14.2279C9.64737 13.3275 10.3756 12.5978 11.276 12.5978C12.175 12.5978 12.9047 13.3275 12.9047 14.2279V21.1716ZM24.4097 21.0544C24.4097 22.3274 23.666 22.7833 22.393 22.7833H16.536C15.263 22.7833 14.2313 21.7516 14.2313 20.4786V14.7176C14.2313 14.7176 14.117 13.7593 15.1783 12.8589C15.7781 12.3494 16.6687 11.377 17.2911 10.1972C18.5274 7.85298 19.2669 7.16991 19.83 7.35338C21.9159 8.0294 20.873 11.1216 20.1998 12.4129H22.1051C23.3767 12.4129 24.4097 13.4446 24.4097 14.7176V21.0544Z" fill="#FF7043"/>
</svg>
