<svg width="44" height="44" viewBox="0 0 44 44" fill="none" xmlns="http://www.w3.org/2000/svg">
<path d="M29.6817 3.66663H14.3183C7.64499 3.66663 3.66666 7.64496 3.66666 14.3183V29.6633C3.66666 36.355 7.64499 40.3333 14.3183 40.3333H29.6633C36.3367 40.3333 40.315 36.355 40.315 29.6816V14.3183C40.3333 7.64496 36.355 3.66663 29.6817 3.66663ZM31.1667 31.625H12.8333C12.0817 31.625 11.4583 31.0016 11.4583 30.25C11.4583 29.4983 12.0817 28.875 12.8333 28.875H31.1667C31.9183 28.875 32.5417 29.4983 32.5417 30.25C32.5417 31.0016 31.9183 31.625 31.1667 31.625ZM31.1667 23.375H12.8333C12.0817 23.375 11.4583 22.7516 11.4583 22C11.4583 21.2483 12.0817 20.625 12.8333 20.625H31.1667C31.9183 20.625 32.5417 21.2483 32.5417 22C32.5417 22.7516 31.9183 23.375 31.1667 23.375ZM31.1667 15.125H12.8333C12.0817 15.125 11.4583 14.5016 11.4583 13.75C11.4583 12.9983 12.0817 12.375 12.8333 12.375H31.1667C31.9183 12.375 32.5417 12.9983 32.5417 13.75C32.5417 14.5016 31.9183 15.125 31.1667 15.125Z" fill="#D86A15"/>
</svg>
