<svg width="48" height="48" viewBox="0 0 48 48" fill="none" xmlns="http://www.w3.org/2000/svg">
<path fill-rule="evenodd" clip-rule="evenodd" d="M10.5 6H16.68C17.8769 5.99999 19.0246 6.47684 19.8691 7.32508C20.7135 8.17333 21.1853 9.32306 21.18 10.52V16.68C21.18 19.1653 19.1653 21.18 16.68 21.18H10.5C8.0147 21.18 5.99998 19.1653 5.99998 16.68V10.52C5.99466 9.32306 6.46642 8.17333 7.31091 7.32508C8.1554 6.47684 9.30304 5.99999 10.5 6ZM16.68 18.16C17.5039 18.1492 18.1692 17.4839 18.18 16.66V10.52C18.18 9.69157 17.5084 9.02 16.68 9.02H10.5C9.67156 9.02 8.99998 9.69157 8.99998 10.52V16.66C9.01075 17.4839 9.67606 18.1492 10.5 18.16H16.68Z" fill="white"/>
<path fill-rule="evenodd" clip-rule="evenodd" d="M31.32 6H37.5C38.697 5.99999 39.8446 6.47684 40.6891 7.32508C41.5336 8.17333 42.0053 9.32306 42 10.52V16.68C42 19.1653 39.9853 21.18 37.5 21.18H31.32C28.8347 21.18 26.82 19.1653 26.82 16.68V10.5C26.82 8.01472 28.8347 6 31.32 6ZM37.5 18.16C38.3239 18.1492 38.9893 17.4839 39 16.66V10.52C39 9.69157 38.3284 9.02 37.5 9.02H31.32C30.4916 9.02 29.82 9.69157 29.82 10.52V16.66C29.8308 17.4839 30.4961 18.1492 31.32 18.16H37.5Z" fill="white"/>
<path fill-rule="evenodd" clip-rule="evenodd" d="M10.5 26.82H16.68C19.1653 26.82 21.18 28.8347 21.18 31.32V37.5C21.18 39.9853 19.1653 42 16.68 42H10.5C9.30304 42 8.1554 41.5232 7.31091 40.6749C6.46642 39.8267 5.99466 38.6769 5.99998 37.48V31.32C5.99998 28.8347 8.0147 26.82 10.5 26.82ZM16.68 38.98C17.5084 38.98 18.18 38.3084 18.18 37.48V31.32C18.1692 30.4961 17.5039 29.8308 16.68 29.82H10.5C9.67606 29.8308 9.01075 30.4961 8.99998 31.32V37.48C8.99998 38.3084 9.67156 38.98 10.5 38.98H16.68Z" fill="white"/>
<path fill-rule="evenodd" clip-rule="evenodd" d="M31.32 26.82H37.5C39.9853 26.82 42 28.8347 42 31.32V37.48C42.0053 38.6769 41.5335 39.8267 40.6891 40.6749C39.8446 41.5232 38.6969 42 37.5 42H31.32C30.123 42 28.9754 41.5232 28.1309 40.6749C27.2864 39.8267 26.8147 38.6769 26.82 37.48V31.32C26.82 28.8347 28.8347 26.82 31.32 26.82ZM37.5 38.98C38.3284 38.98 39 38.3084 39 37.48V31.32C38.9892 30.4961 38.3239 29.8308 37.5 29.82H31.32C30.4961 29.8308 29.8308 30.4961 29.82 31.32V37.48C29.82 38.3084 30.4916 38.98 31.32 38.98H37.5Z" fill="white"/>
</svg>
