<svg width="489" height="333" viewBox="0 0 489 333" fill="none" xmlns="http://www.w3.org/2000/svg">
<g filter="url(#filter0_d_27_405)">
<path d="M164.983 82.2582C165.419 80.9179 167.315 80.9179 167.75 82.2582L170.613 91.0678C170.807 91.6672 171.366 92.073 171.996 92.073L181.259 92.073C182.668 92.073 183.254 93.8764 182.114 94.7047L174.62 100.149C174.11 100.52 173.897 101.176 174.092 101.776L176.954 110.585C177.39 111.926 175.856 113.04 174.716 112.212L167.222 106.767C166.712 106.397 166.021 106.397 165.512 106.767L158.018 112.212C156.878 113.04 155.344 111.926 155.779 110.585L158.641 101.776C158.836 101.176 158.623 100.52 158.113 100.149L150.619 94.7047C149.479 93.8764 150.065 92.073 151.474 92.073L160.737 92.073C161.367 92.073 161.926 91.6672 162.121 91.0678L164.983 82.2582Z" fill="#FF7043"/>
<path d="M205.716 82.2582C206.152 80.9179 208.048 80.9179 208.483 82.2582L211.346 91.0678C211.541 91.6672 212.099 92.073 212.729 92.073L221.992 92.073C223.402 92.073 223.988 93.8764 222.848 94.7047L215.354 100.149C214.844 100.52 214.63 101.176 214.825 101.776L217.688 110.585C218.123 111.926 216.589 113.04 215.449 112.212L207.955 106.767C207.445 106.397 206.755 106.397 206.245 106.767L198.751 112.212C197.611 113.04 196.077 111.926 196.512 110.585L199.375 101.776C199.569 101.176 199.356 100.52 198.846 100.149L191.352 94.7047C190.212 93.8764 190.798 92.073 192.207 92.073L201.47 92.073C202.101 92.073 202.659 91.6672 202.854 91.0678L205.716 82.2582Z" fill="#FF7043"/>
<path d="M246.45 82.2582C246.885 80.9179 248.781 80.9179 249.217 82.2582L252.079 91.0678C252.274 91.6672 252.833 92.073 253.463 92.073L262.726 92.073C264.135 92.073 264.721 93.8764 263.581 94.7047L256.087 100.149C255.577 100.52 255.364 101.176 255.559 101.776L258.421 110.585C258.856 111.926 257.322 113.04 256.182 112.212L248.688 106.767C248.179 106.397 247.488 106.397 246.978 106.767L239.484 112.212C238.344 113.04 236.81 111.926 237.246 110.585L240.108 101.776C240.303 101.176 240.089 100.52 239.58 100.149L232.086 94.7047C230.946 93.8764 231.532 92.073 232.941 92.073L242.204 92.073C242.834 92.073 243.393 91.6672 243.587 91.0678L246.45 82.2582Z" fill="#FF7043"/>
<path d="M287.183 82.2582C287.619 80.9179 289.515 80.9179 289.95 82.2582L292.813 91.0678C293.007 91.6672 293.566 92.073 294.196 92.073L303.459 92.073C304.868 92.073 305.454 93.8764 304.314 94.7047L296.82 100.149C296.31 100.52 296.097 101.176 296.292 101.776L299.154 110.585C299.59 111.926 298.056 113.04 296.916 112.212L289.422 106.767C288.912 106.397 288.221 106.397 287.712 106.767L280.218 112.212C279.077 113.04 277.543 111.926 277.979 110.585L280.841 101.776C281.036 101.176 280.823 100.52 280.313 100.149L272.819 94.7047C271.679 93.8764 272.265 92.073 273.674 92.073L282.937 92.073C283.567 92.073 284.126 91.6672 284.321 91.0678L287.183 82.2582Z" fill="#FF7043"/>
<path d="M327.916 82.2582C328.352 80.9179 330.248 80.9179 330.683 82.2582L333.546 91.0678C333.741 91.6672 334.299 92.073 334.929 92.073L344.192 92.073C345.602 92.073 346.188 93.8764 345.048 94.7047L337.554 100.149C337.044 100.52 336.83 101.176 337.025 101.776L339.888 110.585C340.323 111.926 338.789 113.04 337.649 112.212L330.155 106.767C329.645 106.397 328.955 106.397 328.445 106.767L320.951 112.212C319.811 113.04 318.277 111.926 318.712 110.585L321.575 101.776C321.769 101.176 321.556 100.52 321.046 100.149L313.552 94.7047C312.412 93.8764 312.998 92.073 314.407 92.073L323.67 92.073C324.301 92.073 324.859 91.6672 325.054 91.0678L327.916 82.2582Z" fill="#FF7043"/>
</g>
<defs>
<filter id="filter0_d_27_405" x="0.523865" y="0.897644" width="494.619" height="331.686" filterUnits="userSpaceOnUse" color-interpolation-filters="sRGB">
<feFlood flood-opacity="0" result="BackgroundImageFix"/>
<feColorMatrix in="SourceAlpha" type="matrix" values="0 0 0 0 0 0 0 0 0 0 0 0 0 0 0 0 0 0 127 0" result="hardAlpha"/>
<feOffset dy="68.3738"/>
<feGaussianBlur stdDeviation="72.7381"/>
<feComposite in2="hardAlpha" operator="out"/>
<feColorMatrix type="matrix" values="0 0 0 0 0.0833333 0 0 0 0 0.0833333 0 0 0 0 0.0833333 0 0 0 0.15 0"/>
<feBlend mode="normal" in2="BackgroundImageFix" result="effect1_dropShadow_27_405"/>
<feBlend mode="normal" in="SourceGraphic" in2="effect1_dropShadow_27_405" result="shape"/>
</filter>
</defs>
</svg>
